<svg width="32" height="32" viewBox="0 0 32 32" fill="none" xmlns="http://www.w3.org/2000/svg">
<g clip-path="url(#clip0)">
<rect width="32" height="32" fill="black"/>
<circle cx="16" cy="14" r="13" fill="white"/>
<path fill-rule="evenodd" clip-rule="evenodd" d="M16 1C8.8175 1 3 6.96465 3 14.3288C3 20.2268 6.72125 25.2085 11.8887 26.9745C12.5387 27.0912 12.7825 26.6913 12.7825 26.3414C12.7825 26.0249 12.7663 24.9752 12.7663 23.8589C9.5 24.4754 8.655 23.0425 8.395 22.2928C8.24875 21.9096 7.615 20.7267 7.0625 20.4101C6.6075 20.1602 5.9575 19.5437 7.04625 19.5271C8.07 19.5104 8.80125 20.4934 9.045 20.8933C10.215 22.9092 12.0838 22.3428 12.8313 21.9929C12.945 21.1265 13.2862 20.5434 13.66 20.2102C10.7675 19.8769 7.745 18.7273 7.745 13.6291C7.745 12.1795 8.24875 10.98 9.0775 10.0469C8.9475 9.71372 8.4925 8.34751 9.2075 6.5148C9.2075 6.5148 10.2963 6.16492 12.7825 7.881C13.8225 7.5811 14.9275 7.43116 16.0325 7.43116C17.1375 7.43116 18.2425 7.5811 19.2825 7.881C21.7688 6.14826 22.8575 6.5148 22.8575 6.5148C23.5725 8.34751 23.1175 9.71372 22.9875 10.0469C23.8163 10.98 24.32 12.1629 24.32 13.6291C24.32 18.744 21.2813 19.8769 18.3888 20.2102C18.86 20.6267 19.2663 21.4264 19.2663 22.676C19.2663 24.4587 19.25 25.8916 19.25 26.3414C19.25 26.6913 19.4938 27.1078 20.1438 26.9745C25.2788 25.2085 29 20.2102 29 14.3288C29 6.96465 23.1825 1 16 1Z" fill="black"/>
<path d="M8 4.5L2.5 16.5L2 16L0.5 15L1 6.5L4 0.5C8.33333 0 17.1 -1 17.5 -1C17.9 -1 26.6667 1 31 2V16.5L28 15.5L23.5 4.5H8Z" fill="black"/>
</g>
<defs>
<clipPath id="clip0">
<rect width="32" height="32" fill="white"/>
</clipPath>
</defs>
</svg>
