<svg width="32" height="32" viewBox="0 0 32 32" fill="none" xmlns="http://www.w3.org/2000/svg">
<path d="M29.3002 6.8002C27.0002 4.5002 23.1002 4.5002 20.8002 6.8002L22.2002 8.2001C23.8002 6.6001 26.3002 6.6001 27.9002 8.2001C29.5002 9.8001 29.5002 12.3002 27.9002 13.9002L19.9002 21.9002C18.3002 23.5002 15.8002 23.5002 14.2002 21.9002C12.6002 20.3002 12.6002 17.8001 14.2002 16.2001L15.6002 14.8002L14.2002 13.4002L12.8002 14.8002C10.5002 17.1002 10.5002 21.0002 12.8002 23.3002C14.0002 24.5002 15.5002 25.1001 17.0002 25.1001C18.5002 25.1001 20.1002 24.5002 21.3002 23.3002L29.3002 15.3002C31.6002 12.9002 31.6002 9.1002 29.3002 6.8002Z" fill="black"/>
<path d="M4.19961 24.8004C2.59961 23.2004 2.59961 20.7003 4.19961 19.1003L12.1996 11.1003C13.7996 9.50034 16.2996 9.50034 17.8996 11.1003C18.6996 11.9003 19.0996 12.8004 19.0996 13.9004C19.0996 15.0004 18.6996 16.0004 17.8996 16.8004L15.7996 18.9004L17.1996 20.3004L19.2996 18.2003C21.5996 15.9003 21.5996 12.0003 19.2996 9.70032C18.1996 8.60032 16.6996 7.90039 14.9996 7.90039C13.2996 7.90039 11.8996 8.50032 10.6996 9.70032L2.69961 17.7003C0.399609 20.0003 0.399609 23.9003 2.69961 26.2003C3.89961 27.4003 5.39961 28.0004 6.89961 28.0004C8.39961 28.0004 9.99961 27.4003 11.1996 26.2003L9.79962 24.8004C8.29962 26.4004 5.79961 26.4004 4.19961 24.8004Z" fill="black"/>
</svg>
