<svg width="32" height="32" viewBox="0 0 32 32" fill="none" xmlns="http://www.w3.org/2000/svg">
<rect width="32" height="32" fill="black"/>
<path d="M5 12H28V19.7143H16.5V21H11.3889V19.7143H5V12ZM6.27778 18.4286H8.83333V14.5714H10.1111V18.4286H11.3889V13.2857H6.27778V18.4286ZM12.6667 13.2857V19.7143H15.2222V18.4286H17.7778V13.2857H12.6667ZM15.2222 14.5714H16.5V17.1429H15.2222V14.5714ZM19.0556 13.2857V18.4286H21.6111V14.5714H22.8889V18.4286H24.1667V14.5714H25.4444V18.4286H26.7222V13.2857H19.0556Z" fill="black"/>
<path d="M6.27832 18.428H8.83388V14.5709H10.1117V18.428H11.3894V13.2852H6.27832V18.428Z" fill="white"/>
<path d="M12.667 13.2852V19.7137H15.2225V18.428H17.7781V13.2852H12.667ZM16.5003 17.1423H15.2225V14.5709H16.5003V17.1423Z" fill="white"/>
<path d="M19.0557 13.2852V18.428H21.6112V14.5709H22.889V18.428H24.1668V14.5709H25.4446V18.428H26.7223V13.2852H19.0557Z" fill="white"/>
</svg>
