<svg width="32" height="32" viewBox="0 0 32 32" fill="none" xmlns="http://www.w3.org/2000/svg">
<g clip-path="url(#clip0)">
<rect width="32" height="32" fill="black"/>
<circle cx="15.9477" cy="15.9477" r="13.2632" fill="white"/>
<path d="M16.0011 0.274414C7.36512 0.274414 0.364258 7.27655 0.364258 15.9113C0.364258 24.5473 7.36512 31.5468 16.0011 31.5468C24.6371 31.5468 31.6367 24.5473 31.6367 15.9113C31.6367 7.27655 24.6365 0.274414 16.0011 0.274414ZM23.8776 12.7585C23.8859 12.9274 23.8891 13.0969 23.8891 13.2684C23.8891 18.476 19.9254 24.4799 12.6775 24.4799C10.4525 24.4799 8.38049 23.8278 6.63678 22.7102C6.94539 22.7464 7.25844 22.7648 7.57658 22.7648C9.42315 22.7648 11.1224 22.1349 12.4705 21.0782C10.7465 21.0459 9.29171 19.906 8.79006 18.3408C9.03009 18.3878 9.2771 18.4113 9.5311 18.4113C9.89051 18.4113 10.2385 18.3643 10.5693 18.2735C8.76593 17.9115 7.40767 16.3177 7.40767 14.4101C7.40767 14.393 7.40767 14.3765 7.4083 14.3593C7.93916 14.6546 8.54686 14.8318 9.19329 14.8527C8.13538 14.1447 7.44005 12.9401 7.44005 11.5723C7.44005 10.8503 7.63436 10.1728 7.97345 9.59112C9.91718 11.9749 12.821 13.544 16.0964 13.7078C16.029 13.4202 15.9941 13.1185 15.9941 12.8099C15.9941 10.6344 17.7582 8.86976 19.9349 8.86976C21.0684 8.86976 22.092 9.34855 22.8108 10.1137C23.7087 9.93783 24.552 9.6089 25.3134 9.15741C25.0181 10.0782 24.3939 10.8503 23.5798 11.3374C24.378 11.2421 25.1375 11.03 25.8436 10.717C25.3165 11.5088 24.6479 12.2029 23.8776 12.7585Z" fill="black"/>
</g>
<defs>
<clipPath id="clip0">
<rect width="32" height="32" fill="white"/>
</clipPath>
</defs>
</svg>
